<svg xmlns="http://www.w3.org/2000/svg" viewBox="0 0 24 24" fill="black">

<path d="M12 .5C5.65.5.5 5.65.5 12
c0 5.08 3.29 9.39 7.86 10.91
.57.1.78-.25.78-.55
0-.27-.01-1.16-.02-2.1
-3.2.69-3.88-1.54-3.88-1.54
-.52-1.33-1.27-1.69-1.27-1.69
-1.04-.71.08-.69.08-.69
1.15.08 1.75 1.18 1.75 1.18
1.02 1.75 2.67 1.24 3.32.95
.1-.74.4-1.24.72-1.53
-2.55-.29-5.24-1.28-5.24-5.68
0-1.25.45-2.27 1.18-3.07
-.12-.29-.51-1.46.11-3.04
0 0 .96-.31 3.15 1.17
a10.97 10.97 0 015.74 0
c2.19-1.48 3.15-1.17 3.15-1.17
.62 1.58.23 2.75.11 3.04
.73.8 1.18 1.82 1.18 3.07
0 4.41-2.69 5.38-5.26 5.67
.41.35.77 1.03.77 2.08
0 1.5-.01 2.71-.01 3.08
0 .3.2.66.79.55
4.56-1.52 7.84-5.83
7.84-10.91
C23.5 5.65 18.35.5 12 .5z"></path>

</svg>